<!-- Generator: Adobe Illustrator 22.1.0, SVG Export Plug-In  -->
<svg version="1.1"
	 xmlns="http://www.w3.org/2000/svg" xmlns:xlink="http://www.w3.org/1999/xlink" xmlns:a="http://ns.adobe.com/AdobeSVGViewerExtensions/3.0/"
	 x="0px" y="0px" width="295.1px" height="152px" viewBox="0 0 295.1 152" style="enable-background:new 0 0 295.1 152;"
	 xml:space="preserve">
<style type="text/css">
	.st0{fill:#F19925;}
	.st1{fill:#A00000;}
	.st2{fill:#750000;}
	.st3{fill:none;}
	.st4{fill:#F4B73D;}
	.st5{fill:#0C0700;}
</style>
<defs>
</defs>
<g>
	<path class="st0" d="M61,78.1c-5.2,0.1-11-0.3-14.2,1C35.1,83.8,26.5,100,22,119.3c3.8,0.4,15,0.6,18.1-2.4
		c1.6-1.6,3.2-11.1,6.7-19.6C50.9,87.1,55.7,80.7,61,78.1z"/>
	<path class="st0" d="M42.5,79.9c-0.3,0.1-0.5,0.1-0.7,0.2C23.1,86.2,9.3,102,3.8,111c-2.3,3.7-2.6,5.3-2.5,5.6
		c0.8,1.6,2.6,2.8,5.3,3.5c5.1,1.4,12.3,1.2,13.9-0.6c0.1-0.1,0.1-0.2,0.1-0.3c0.8-2.8,6.2-20.7,11.4-28.4
		C35.4,86.1,38.9,82.4,42.5,79.9z"/>
	<path class="st1" d="M133.5,4l-5.1-2c0,0-9.6,12.3-10.2,17.7c-0.7,5.5-0.8,12.8-0.8,12.8s2.5-11.2,5.9-16.3
		C126.6,11.3,133.5,4,133.5,4z"/>
	<path class="st1" d="M161.8,4.4l4.3-2.3c0,0,8.7,12.4,9.5,18c0.8,5.6,1.2,13.3,1.2,13.3s-2.6-11.5-5.7-16.6S161.8,4.4,161.8,4.4z"
		/>
	<path class="st2" d="M175.6,44.6c2-9.3,0.3-18.6-3.7-26.9C169.6,13,166,9,162.8,4.6c-0.1-0.1,0-0.3,0.1-0.3l4.9-2.3
		c0.1-0.1,0.3,0,0.3,0.2c0.7,4.1,1.8,5,6.2,5.8c0.1,0,0.2,0.1,0.2,0.2c0,1.6-0.1,3.2,0.7,4.3c0.8,1.2,2.2,1.8,3.5,2.6
		c0.1,0.1,0.1,0.2,0.1,0.3c-1.2,3.1-0.4,4.7,2.3,6.7c0.1,0.1,0.1,0.2,0.1,0.3c-0.8,1.7-1.2,5.9-1.6,8.2c-1,5.2-2.6,12.9-3.5,14.9
		c0,0.1,0,0.1-0.1,0.1c0-0.1,0-0.2,0.1-0.3C176,44.8,175.5,44.8,175.6,44.6z"/>
	<path class="st2" d="M117.8,43.1c-2-9,0.1-17.6,4.1-25.6c2.2-4.5,6.1-8.8,9.3-13.1c0.1-0.1,0-0.3-0.1-0.3l-4.6-2
		c-0.1-0.1-0.3,0-0.3,0.2c-0.7,4-2.2,4.7-6.6,5.5c-0.1,0-0.2,0.1-0.2,0.2c0,1.6,0,3.3-0.8,4.4c-0.8,1.1-2.3,1.8-3.6,2.6
		c-0.1,0.1-0.1,0.2-0.1,0.3c1.2,3,0.2,4.7-2.5,6.6c-0.1,0.1-0.1,0.2-0.1,0.3c0.8,1.7,1.3,5.2,1.7,7.4c0.9,5,2.8,13.3,3.7,15.3
		c0,0,0,0.1,0.1,0.1c0-0.1,0-0.2-0.1-0.3C117.7,44.3,117.9,43.2,117.8,43.1z"/>
	<path class="st2" d="M148.8,36.2c4.1,0.2,7.6,2.5,9.8,5.6c2.2,3.1,6.1,6.7,7.3,7.2s3,8.1,2.8,11.1c-0.2,3.1,2.6,9.4,2.9,12.4
		c0.2,2.9,2.4,29.6-1.9,37.8s-13.8,18.1-23.4,16c-9.6-2.1-22.1-6.2-24.2-21.6s-3.2-30.2,0.6-38s2.6-12.8,3.6-15.3
		c1-2.5,4.8-3.1,7.2-4.8C135.9,44.7,141.4,35.8,148.8,36.2z"/>
	<path class="st3" d="M126.1,62.6c0.2-0.4,0.3-0.8,0.5-1.2C126.4,61.8,126.2,62.2,126.1,62.6z"/>
	<path class="st3" d="M152.2,124.7c-0.1,0-0.3,0.1-0.4,0.1C151.9,124.8,152,124.7,152.2,124.7z"/>
	<path class="st3" d="M145.7,125c0,0.1,0.1,0.2,0.2,0.2C145.8,125.2,145.7,125.2,145.7,125z"/>
	<path class="st3" d="M125.7,63.5C125.7,63.5,125.7,63.5,125.7,63.5C125.7,63.5,125.7,63.5,125.7,63.5z"/>
	<path class="st3" d="M144.5,124.2c0,0,0,0.1-0.1,0.2C144.5,124.3,144.5,124.2,144.5,124.2z"/>
	<path class="st2" d="M170.8,126.6c0,0.3,0.4,0.3,0.5,0.1c1.7-3.8,3-7.7,4.1-11.7c-1.1-0.5-2.2-1.2-3.3-2.1
		C171,117.3,170.5,121.8,170.8,126.6z"/>
	<path class="st2" d="M123,127.4c0.4-5.9-0.5-11.4-2.3-16.7c-1.1,0.8-2.2,1.5-3.3,2c1.3,5,2.9,10,5.1,14.8
		C122.6,127.7,123,127.6,123,127.4z"/>
	<path class="st0" d="M42.4,116c2.2-0.7,5.5-1.2,8.9-1.6c2-0.3,4.1-0.6,5.8-0.9c1.6-0.3,2.5-1.3,2.9-2.8
		c3.3-16.1,11.9-29.1,25.1-32.4c-2,0-3.9-0.1-6.3-0.1c-3.9,0-12.5,0.1-12.5,0.1C50,78.9,43.9,109,42.4,116z"/>
	<path class="st0" d="M83.8,116.8c2.8,0.5,15.4-1.4,20.7-2.9c2.6-1,2.6-1.7,3-3.6c0.5-7,2.8-14.2,6.2-22.9c2.1-5.4,4.4-10,6.5-13.2
		c0.1-0.8,0.2-1.7,0.4-2.5c0.1-0.6,0.2-1.2,0.3-1.8c-0.5,0.4-1.1,0.7-1.6,1.2C103.9,82.8,88.9,91.5,83.8,116.8z"/>
	<path class="st0" d="M108.9,113C108.9,113,108.9,113,108.9,113c2.6,0.4,8.2,1.4,13.2-4.2c-0.5-1.7-0.8-3.5-1.1-5.5
		c-0.6-4.3-1.8-12.4-1.7-17.3c0-0.8,0-1.6,0.1-2.6c0.1-1.3,0.2-2.8,0.3-4.4c0.1-0.7,0.1-1.4,0.2-2.1
		C113.6,86.8,109.6,100.7,108.9,113z"/>
	<path class="st0" d="M61.1,112.7c1.3,0.2,3.3,0.7,5.8,1.3c4.1,1,10.3,2.5,13.7,2.7c1.1,0.1,1.9-0.1,2.1-1.2
		c5.6-24.9,24.5-38,35.8-45.6c0.6-0.4,1-0.6,1.5-1c-14.5,5.9-22.5,8.3-29.3,9.1C72.6,80.4,64.3,93.8,61.1,112.7z"/>
	<path class="st0" d="M234.4,112.9c0.3,1.6,1.3,2.5,2.9,2.8c1.7,0.3,3.8,0.6,5.9,0.9c3.5,0.5,6.8,0.9,9,1.6
		c-1.6-6.9-7.8-37.1-24.2-37.8c0,0-8.8-0.1-12.7-0.1c-2.4,0-4.4,0.1-6.4,0.1C222.3,83.8,231,96.8,234.4,112.9z"/>
	<path class="st4" d="M126,59.8l-29.7,12c0,0-13.3,3.6-24.1,3.7c-10.8,0.1-32.5,2.7-40.3,8.3s-9.9,5-13.8,9.6
		c-3.9,4.6-12.3,14.4-5.4,16.2C22,112,28.9,98.4,28.9,98.4s-5.5,12.5,0.5,12.3c10.9-0.3,19-16.3,19-16.3s-4.8,12.1,1.6,11.2
		c10.4-1.4,18.8-15.4,18.8-15.4s-6.5,10.7,0.8,14.7c10.1,5.5,30.1-19.8,30.1-19.8s-11.7,15.9-7.3,19.1c9,6.5,19.9-12.9,19.9-12.9
		s-1.9,9.9,3.2,9.2c5.1-0.7,4.6-10.8,4.6-10.8s0.3-6.2,0.8-11.1C121.5,73.7,126,59.8,126,59.8z"/>
	<path class="st0" d="M70,76.2c-2.4,0.2-4.9,0.4-7.3,0.6c5.5-0.1,11.1,0,16.1,0c4.9,0,8.6,0.8,14.1-0.2c8.9-1.6,22.3-6.2,28.6-9.2
		c0.2-0.8,0.4-1.6,0.7-2.2c0.5-1.3,0.5,0.5,0.8-0.4c-6.3,3.2-22,8-28.5,10C87.2,76.8,80.4,75.4,70,76.2z"/>
	<path class="st0" d="M247.7,81.4c-3.2-1.2-9.1-0.8-14.4-1c5.4,2.5,10.2,8.9,14.5,19.1c3.6,8.6,5.2,18.1,6.7,19.6
		c3.1,3,14.5,2.8,18.3,2.4C268.2,102.3,259.5,86.1,247.7,81.4z"/>
	<path class="st0" d="M172.8,75.8c2.3,3.2,4.8,8,7.1,13.9c3.4,8.7,5.8,15.9,6.3,22.9c0.3,2,0.3,2.6,3,3.6c5.4,1.5,18.2,3.4,21,2.9
		c-5.2-25.3-20.3-34-35.9-45.8c-0.7-0.5-1.3-1-2-1.4c0.1,0.4,0.1,0.8,0.2,1.2C172.6,74.1,172.7,75,172.8,75.8z"/>
	<path class="st0" d="M252.8,82.5c-0.2-0.1-0.5-0.1-0.8-0.2c3.6,2.4,7.2,6.2,10.5,11c5.3,7.7,10.8,25.6,11.5,28.4
		c0,0.1,0.1,0.2,0.1,0.3c1.6,1.8,8.9,1.9,14.1,0.6c2.7-0.7,4.5-1.9,5.4-3.5c0.1-0.3-0.2-1.9-2.5-5.6
		C285.7,104.3,271.7,88.5,252.8,82.5z"/>
	<path class="st0" d="M213.5,119.1c3.5-0.3,9.8-1.8,13.9-2.7c2.5-0.6,4.6-1.1,5.9-1.3c-3.3-18.9-11.7-32.4-30.2-34.6
		c-6.9-0.9-15-3.3-29.6-9.1c0.6,0.4,0.9,0.6,1.6,1c11.5,7.6,30.6,20.7,36.3,45.6C211.5,118.9,212.4,119.2,213.5,119.1z"/>
	<path class="st0" d="M173.1,79.4c0.1,1,0.1,2,0.1,2.9c0,1.1,0,2.2,0.1,3.4c0.1,7.6-1.2,17.1-2.1,21.5c-0.2,1-0.4,2-0.7,2.9
		c5.4,6.7,11.5,5.7,14.3,5.2c0,0,0,0,0,0c-0.7-12.7-5-27.1-11.7-36.9C173.1,78.8,173.1,79.1,173.1,79.4z"/>
	<path class="st4" d="M169.8,63.7L202,75.3c0,0,13.1,2.7,24,2.8s30.9,4,38.7,9.6s10.4,6.8,15.2,11.2c4.5,4.1,11.1,12.8,4.2,14.7
		c-9.4,2.5-17.8-12.8-17.8-12.8s7,14,0.9,13.9c-11-0.3-20.7-17.8-20.7-17.8s4.7,13.3-1.7,12.4c-10.5-1.4-18.5-16-18.5-16
		s5.9,11.2-1.5,15.2c-10.2,5.5-30.2-19.7-30.2-19.7s11.6,15.8,7.1,19c-9.1,6.5-20.7-13.3-20.7-13.3s2.8,10.6-2.3,9.8
		c-5.1-0.7-6.4-14.3-6.4-14.3s0.6-7.3,0-12.3C171.8,72.7,169.8,63.7,169.8,63.7z"/>
	<path class="st0" d="M201,78.9c5.6,1,9.4,0.3,14.3,0.2c5,0,10.7-0.1,16.3,0c-2.4-0.2-4.9-0.4-7.4-0.6c-10.5-0.8-18.9,0.7-26.3-1.4
		c-6.5-1.9-20.8-6.9-27.3-10.1c0.5,1.7,0.8,0.7,1.2,2.6C178.1,72.6,191.9,77.3,201,78.9z"/>
	<path class="st0" d="M170.1,68.6C170.1,68.6,170.1,68.6,170.1,68.6c-0.2-1-0.4-2-0.7-2.9l0,0C169.6,66.7,169.9,67.6,170.1,68.6z"/>
	<path class="st5" d="M170.3,69.7c-0.1-0.4-0.1-0.7-0.2-1.1c0,0,0,0,0,0C170.1,69,170.2,69.4,170.3,69.7z"/>
	<path class="st5" d="M169.4,65.7L169.4,65.7c-0.4-1.4-0.8-2.8-1.2-4.1C168.6,62.9,169,64.3,169.4,65.7z"/>
	<path class="st1" d="M148.8,36.2c2.7,0.1,6,0.5,9.8,5.6s2.5,4.6,3.8,5.1c1.4,0.5-1.4-1.7,1.4,0.5c2.7,2.2,4.2,6.8-2.8,10.4
		c-7,3.6-18.2,3-24.9,0.7c-7.5-2.6-10.4-5.4-7.1-8.3c3.3-2.8,3.9,0.3,5.2-1.7c1.2-2,2.7-7.6,6.8-9.8
		C145.1,36.5,148.8,36.2,148.8,36.2z"/>
	<path class="st1" d="M165.4,61.6c-1.2-1.1-5.3,0.7-5.9,1.9c-0.6,1.1-6.3,4-7.3,6.3c-3.3,7.3-5.5,21.2-5.5,21.2s1.3-13.1,0-19.1
		s-11.5-8.1-11.5-8.1s-4.1-3.3-5.5-2.3c-2.9,2.3-3.7,18.1-3.2,26.5c0,0.6,0.1,1.2,0.3,1.9c0.7-6.9,1.4-12.5,1.7-11.2
		c0.2,0.9-0.1,7.5-0.5,14.7c1.1,2.3,2.7,4.5,4.7,6.4c1.1-11.5,2.5-23.3,3.2-21.3c0.5,1.4-0.1,12.7-0.7,23.4c1.3,1,2.7,1.8,4.1,2.5
		c0.8-8.7,1.8-16.9,2.2-15.4c0.3,1-0.1,8.3-0.6,16.1c2.2,0.9,4.6,1.4,7,1.4c1.5,0,2.9-0.1,4.3-0.4c0.1-7.9,0.2-15.5,0.5-16.4
		c0.5-1.5,0.8,7.1,1.1,16.1c2.1-0.6,4-1.5,5.7-2.6c0.1-11,0.4-23,0.9-24.4c0.8-2,1.3,10.7,1.6,22.4c2-1.8,3.6-4.1,4.8-6.6
		c0.1-7.8,0.3-15.1,0.6-16.1c0.4-1.3,0.7,4.8,0.9,12c0.1-0.5,0.3-1.1,0.4-1.6C170.7,78.7,166.5,62.8,165.4,61.6z"/>
	<path class="st0" d="M152.2,124.7c0,0.1,0,0.2,0,0.2l2-0.6c0,0,0,0,0-0.1c0-1.1-0.1-10-0.3-18.5c-0.5,0.1-1.1,0.3-1.6,0.4
		C152.2,114.5,152.2,123.4,152.2,124.7z"/>
	<path class="st4" d="M152.8,89.6c-0.3,1-0.5,8.5-0.5,16.4c0.5-0.1,1.1-0.2,1.6-0.4C153.6,96.6,153.3,88.1,152.8,89.6z"/>
	<path class="st0" d="M159.5,121.5l3-2.3c0,0-0.1-8.8-0.3-18.2c-0.8,0.7-1.6,1.4-2.6,2C159.5,112.7,159.5,121.5,159.5,121.5z"/>
	<path class="st4" d="M160.5,78.6c-0.6,1.4-0.8,13.4-0.9,24.4c0.9-0.6,1.8-1.3,2.6-2C161.8,89.3,161.3,76.6,160.5,78.6z"/>
	<path class="st0" d="M166.8,114.1l1.3-2.5l0.6-1.2c0,0,0-0.3,0-0.9c0-2.8-0.1-11.6-0.3-19.2c-0.4,1.4-0.9,2.8-1.5,4.1
		C166.8,103.9,166.8,114.1,166.8,114.1z"/>
	<path class="st4" d="M167.5,78.3c-0.3,0.9-0.5,8.3-0.6,16.1c0.6-1.3,1.1-2.7,1.5-4.1C168.2,83.1,167.9,77,167.5,78.3z"/>
	<path class="st0" d="M137.6,123.4C137.6,123.4,137.6,123.4,137.6,123.4L137.6,123.4l2,0.7c0,0,0.7-9.8,1.3-19.1
		c-0.5-0.2-1.1-0.4-1.6-0.7C138.5,113.4,137.6,123.3,137.6,123.4z"/>
	<path class="st4" d="M141.5,88.8c-0.4-1.5-1.3,6.7-2.2,15.4c0.5,0.3,1.1,0.5,1.6,0.7C141.4,97.2,141.8,89.8,141.5,88.8z"/>
	<path class="st0" d="M131,119.3C131,119.3,131,119.4,131,119.3l0.6,0.4l2.4,1.5c0,0,0.7-9.5,1.3-19.5c-0.9-0.7-1.7-1.4-2.5-2.1
		C131.8,109.2,131,118.5,131,119.3z"/>
	<path class="st4" d="M135.9,78.3c-0.7-2-2,9.8-3.2,21.3c0.8,0.7,1.6,1.4,2.5,2.1C135.8,91,136.4,79.7,135.9,78.3z"/>
	<path class="st0" d="M125.1,110c0,0.2,0,0.3,0,0.3l1.5,3.7c0,0,0-0.1,0-0.2c0.1-1.6,0.9-11.6,1.4-20.6c-0.5-1.1-1-2.3-1.2-3.5
		C126,98,125.2,108.1,125.1,110z"/>
	<path class="st4" d="M128.5,78.5c-0.4-1.3-1,4.4-1.7,11.2c0.2,1.1,0.7,2.3,1.2,3.5C128.5,86,128.8,79.4,128.5,78.5z"/>
	<g>
		<path class="st3" d="M115.9,76.7c-12.9,9.7-24.2,18.1-29,37.7c4.7-0.3,12.9-1.7,16.9-2.8c0.7-0.3,1-0.5,1.1-0.5
			c0.1-0.2,0.1-0.6,0.2-0.9l0-0.1c0.6-7.3,2.9-14.7,6.4-23.5C112.9,82.8,114.4,79.5,115.9,76.7z"/>
		<path class="st3" d="M91.2,80.5c-8.1,1-14.3,4.3-18.9,10.2c-3.9,4.9-6.6,11.5-8.3,20.1c1,0.2,2.2,0.5,3.5,0.8
			c3.7,0.9,9.8,2.4,13.1,2.7c1.4-5.8,3.5-11.3,6.5-16.5c2.6-4.6,5.9-9.1,9.7-13.2c2.5-2.7,5.1-5,7.6-7.2C99.1,79.1,95,80,91.2,80.5z
			"/>
		<path class="st3" d="M66.3,80.7c-5.7,0.2-10.7,5-14.9,14.3c-2.9,6.3-4.7,13.2-5.8,17.8c1.6-0.3,3.5-0.5,5.3-0.8
			c2-0.3,4-0.6,5.7-0.9c0.6-0.1,0.8-0.3,0.9-0.9c1.8-8.6,5-16.2,9.3-22c2.3-3,4.8-5.6,7.5-7.6C70.7,80.6,66.7,80.7,66.3,80.7z"/>
		<path class="st3" d="M139.7,68.8c-3.2-1.3-6.5-2.5-9.6-3.7c-0.7-0.3-1.4-0.5-2.1-0.8l0,0.1l0,0l0,0c-2.4,6.1-3.8,13.9-3.9,21.8
			c-0.1,8.3,1,16.2,3.4,22.9l0.2,0.5l0,0.2l0.2,0.5l1.1,2.4c0.2,0.5,0.4,0.9,0.6,1.3c0.6,1.2,1.5,2.1,3,3.3l0.4,0.3l0.1,0l0.1,0
			c0.3,0.2,0.6,0.4,0.9,0.6c1.4,0.9,3,2,4.7,2.7l0,0l0,0c1.2,0.5,2.3,0.8,3.4,1c0-1.4,0-2.8,0.1-4.2c0.3-5,0.5-10.2,0.8-15.1
			c0.5-8.9,0.9-18,1.3-27.1C144.4,71.9,143.4,70.2,139.7,68.8z"/>
		<path class="st3" d="M131.5,57.8c2.5,1.3,5.1,2.4,7.8,3.5c0.7,0.3,1.5,0.6,2.3,1c3.8,1.6,6.3,3.7,7.7,6.5
			c2.2-4.3,6.3-7.5,12.1-9.7l0.2-0.1c1.6-0.6,3.3-1.2,3.9-1.6c0-0.1,0-0.2,0-0.3c0-0.1,0-0.2,0-0.4c-0.2-0.8-0.6-2.1-1.1-3.6
			c0,0,0-0.1,0-0.1c0,0,0-0.1-0.1-0.1c-0.4-1.1-0.9-1.8-1.2-1.8c-0.2,0-0.7,0.1-1.8,0.9c-1,0.8-2.1,1.5-3.2,2.1
			c-0.3,0.2-0.6,0.3-0.9,0.5c-0.5,0.3-1,0.5-1.6,0.5c-1,0-1.8-0.4-2.4-1.2c-0.6-0.7-0.8-1.6-0.6-2.5c0.2-0.9,0.7-1.6,1.5-2.1
			c0.4-0.2,0.7-0.4,0.9-0.6c1.2-1,2.5-2.1,2.9-2.6c-0.4-0.6-1.5-1.9-2.6-3.1c-0.1-0.1-0.2-0.2-0.2-0.3l0,0c-2.5-3-4.1-3.4-5.2-3.4
			c-1.5,0-3.5,0.8-6.3,2.6c-0.5,0.3-0.9,0.7-1.4,1.1c-0.3,0.2-0.6,0.5-0.9,0.7c-1.3,0.9-2,1.8-1.9,2.5c0,0.7,0.9,1.8,3.2,3.1
			c0.9,0.5,1.9,0.8,3.1,1.2c0.4,0.1,0.8,0.2,1.1,0.4c0.8,0.3,1.4,0.8,1.8,1.5c0.4,0.7,0.4,1.6,0.2,2.3l0,0.1c-0.4,1.2-1.5,2-2.8,2
			c-0.3,0-0.7-0.1-1-0.2c-1-0.4-2-0.7-3-1.1c-2.7-1-5.5-2-8.3-2.8c-1-0.3-1.9-0.4-2.6-0.4c-0.2,0-0.3,0-0.4,0
			c-0.5,0.6-0.8,1.6-0.7,2.6C129.9,56.2,130.6,57.4,131.5,57.8z"/>
		<path class="st3" d="M40.3,109c1-3.7,2.3-8.3,4.1-12.6c2.2-5.3,4.5-9.6,7-13c0.7-1,1.5-1.9,2.3-2.7c-2.4,0.1-4.7,0.2-6.1,0.7
			C42.6,83.4,38,88,33.8,95c-3.5,6-6.5,13.5-8.7,22c0.6,0,1.3,0,1.9,0c6.4,0,10.3-0.9,11.3-1.9C38.8,114.5,39.6,111.4,40.3,109z"/>
		<path class="st3" d="M119.4,108.1c-0.3-1.4-0.6-2.8-0.8-4.5c-0.1-0.5-0.1-1-0.2-1.5c-0.5-3.9-1.3-9.4-1.5-13.7
			c-2.8,6.9-4.7,14.8-5.4,22.5c0.3,0,0.6,0,0.9,0C115,110.9,117.4,110,119.4,108.1z"/>
		<path class="st3" d="M175.8,88.5c-0.2,7.1-1.3,15.2-2.1,19.3c-0.1,0.6-0.3,1.2-0.4,1.8c2.3,2.5,4.9,3.7,8,3.7c0.3,0,0.6,0,0.9,0
			c-0.5-5.5-1.6-11.2-3.4-16.7C177.9,93.7,176.9,91,175.8,88.5z"/>
		<path class="st3" d="M177.9,22.9c-0.4-0.3-0.7-0.7-1-1.1c0.3,0.8,0.5,1.5,0.8,2.3C177.7,23.7,177.8,23.3,177.9,22.9z"/>
		<path class="st3" d="M171.7,10c-0.4-0.1-0.8-0.2-1.2-0.3c0.5,0.6,0.9,1.3,1.4,1.9C171.7,11.1,171.7,10.6,171.7,10z"/>
		<path class="st3" d="M174.1,15.4c0.1,0.2,0.2,0.4,0.3,0.7c0.3,0.7,0.6,1.3,0.9,2c0-0.5,0-1.1,0.1-1.7
			C175,16.1,174.5,15.8,174.1,15.4z"/>
		<path class="st3" d="M121.9,11.9c0.5-0.8,1.1-1.5,1.7-2.3c-0.4,0.1-0.9,0.3-1.5,0.4C122.1,10.7,122,11.3,121.9,11.9z"/>
		<path class="st3" d="M31.5,87.4c-4.1,2.4-8.2,5.4-12.1,8.9c-7.7,6.9-12.1,13.5-13.6,16c-1.2,2-1.7,3.2-2,3.8
			c0.8,0.9,2.2,1.4,3.3,1.7c1.9,0.5,4.4,0.8,6.6,0.8c2.6,0,4-0.4,4.6-0.6c1-3.5,6.2-20.6,11.5-28.5C30.5,88.8,31,88.1,31.5,87.4z"/>
		<path class="st3" d="M119.4,16c0.1-0.3,0.3-0.5,0.4-0.8c-0.5,0.4-1.1,0.8-1.7,1.1c0.1,0.8,0.2,1.5,0.1,2.1
			C118.6,17.7,119,16.8,119.4,16z"/>
		<path class="st3" d="M117.1,21.5c-0.4,0.5-0.9,1-1.4,1.5c0.1,0.5,0.2,1,0.4,1.5C116.3,23.5,116.7,22.5,117.1,21.5z"/>
		<path class="st3" d="M169,94c0.2-5.5,0.2-7,0-13.5c-0.1-3.3-0.5-6.9-1.1-10.3c-0.1-0.3-0.1-0.7-0.2-1c-0.2-0.9-0.4-1.9-0.6-2.8
			c-0.2-0.7-0.4-1.4-0.6-2c-6.8,1.7-11.4,5.5-13.9,11.3c-0.4,0.8-1.1,1.4-2,1.6c0,0.3-0.1,0.6-0.1,0.9c-1.6,13.1-2.3,27-2.1,41.3
			c0,1.2,0,2.3-0.1,3.5c1.1-0.1,1.9-0.3,2.7-0.5l0.2,0l0.1,0l0.1,0c0.1,0,0.1,0,0.2,0l0.1,0l0.1,0l0,0l1.3-0.3l0.4-0.1
			c4.6-1.5,10.5-5.9,12.4-11.1l0.1-0.2l0.1-0.1l0.4-0.7c0-0.1,0-0.2,0-0.3l0-0.3l0.1-0.3C167.5,104.5,168.8,97.8,169,94z"/>
		<path class="st3" d="M221.9,93c-4.7-5.8-11-9.2-19.2-10.2c-3.9-0.5-8.1-1.4-13.3-3.1c2.6,2.1,5.2,4.5,7.7,7.2
			c3.9,4.1,7.2,8.6,9.9,13.2c2.9,5.2,5.1,10.7,6.5,16.5c3.3-0.3,9.3-1.7,13.3-2.7c1.3-0.3,2.5-0.6,3.6-0.8
			C228.6,104.5,225.9,97.9,221.9,93z"/>
		<path class="st3" d="M137.4,6.1c-0.9,0.2-2.5,1-3.4,1.8c-4.4,4.1-7.6,8.1-9.7,12.4c-2.3,4.6-3.4,9.5-3.4,15c0,0.4,0,0.8,0,1.3
			c0,2.8-0.1,7,1.3,9.6c0.4,0.6,0.8,1.2,1.3,1.8c1.6-3,4.3-3.3,5.3-3.3c0.2,0,0.4,0,0.6,0c0.1,0,0.3,0,0.4,0c1.1,0,1.6-0.5,3.2-2.6
			c1.1-1.4,2.6-3.3,4.8-5.2c-0.1-0.1-0.2-0.3-0.3-0.4l-0.1-0.1c-0.5-1-1.4-2.4-1-4c0.4-1.4,1.3-3,2.4-4c0.3-0.3,0.7-0.5,1.1-0.6
			c-3.2-2.4-5.3-6.2-5.3-10.5c0-4,1.8-7.6,4.6-10c-0.5-0.1-1-0.4-1.4-0.8C137.8,6.4,137.6,6.2,137.4,6.1z"/>
		<path class="st3" d="M291.1,118.4c-0.2-0.6-0.8-1.8-2-3.8c-1.5-2.5-6-9.1-13.8-16c-4-3.5-8.1-6.5-12.3-8.9c0.5,0.7,1,1.4,1.5,2.1
			c5.4,7.9,10.6,25,11.7,28.5c0.6,0.2,2.1,0.6,4.7,0.6c2.3,0,4.8-0.3,6.7-0.8C288.9,119.8,290.3,119.3,291.1,118.4z"/>
		<path class="st3" d="M260.8,97.3c-4.2-7-8.9-11.6-14-13.6c-1.4-0.5-3.7-0.7-6.2-0.7c0.8,0.8,1.5,1.7,2.3,2.7
			c2.5,3.3,4.9,7.7,7.1,13c1.8,4.4,3.1,9,4.2,12.6c0.7,2.5,1.6,5.5,2.1,6.2c1,0.9,5,1.9,11.5,1.9c0.7,0,1.3,0,2,0
			C267.4,110.8,264.4,103.3,260.8,97.3z"/>
		<path class="st3" d="M227.9,83c-0.4,0-4.5-0.1-8.2-0.1c2.8,2,5.3,4.5,7.6,7.6c4.4,5.8,7.6,13.4,9.4,22c0.1,0.6,0.3,0.8,1,0.9
			c1.7,0.3,3.7,0.6,5.7,0.9c1.9,0.3,3.8,0.5,5.4,0.8c-1.1-4.5-2.9-11.5-5.9-17.8C238.8,88,233.7,83.2,227.9,83z"/>
		<path class="st3" d="M143.7,33.9c0.1,0,0.3,0,0.5,0c0.4,0,0.8-0.1,1.2-0.2c1.6-0.6,3.1-0.9,4.6-0.9c1.4,0,2.7,0.3,3.9,0.8
			c-0.4-0.5-0.7-1.1-0.8-1.8c-0.1-1.2,0.1-2.1,0.6-2.9c-1.8,0.9-3.8,1.4-6,1.4c-1.1,0-2.1-0.1-3.1-0.4c0,0.2,0.1,0.4,0.1,0.6
			C144.9,32.2,144.3,33.2,143.7,33.9z"/>
		<path class="st3" d="M159.5,38c0.8,0.9,1.6,1.9,2.3,2.9c1.8,2.4,3.4,4.5,5.5,4.8c1.4,0.2,2.2,1.3,2.8,2.5c0.5-0.6,1-1.3,1.4-2
			c1.4-2.6,1.3-6.8,1.3-9.6c0-0.5,0-0.9,0-1.3c0-5.5-1.1-10.4-3.3-15c-2.1-4.3-5.1-8.4-9.4-12.4c-0.8-0.8-2.3-1.6-3.2-1.8
			c-0.2,0.1-0.4,0.3-0.5,0.4c-0.2,0.2-0.4,0.4-0.6,0.5c3,2.4,5,6.1,5,10.3c0,4.3-2.1,8.1-5.2,10.5c0.2,0,0.4-0.1,0.6-0.1
			c1.6,0,2.9,1.1,3.2,1.3c1.8,1.6,1.8,5,1.3,6.3C160.4,36.5,160,37.2,159.5,38z"/>
		<path class="st3" d="M177.7,79C177.7,79,177.7,79,177.7,79c1.5,2.7,3,6.1,4.4,9.8c3.5,8.9,5.9,16.3,6.4,23.5l0,0.1
			c0.1,0.3,0.1,0.8,0.2,0.9c0.1,0.1,0.4,0.2,1.1,0.5c4,1.1,12.4,2.4,17.2,2.8C202.2,97.1,190.8,88.7,177.7,79z"/>
		<path class="st5" d="M294.9,119.5c0.2-0.4,0.3-1.2-0.9-3.7c-2-4.2-7.3-11.8-15.3-19.2c-5.7-5.3-14.5-11.9-25.5-15.4l0,0
			c0,0-0.1,0-0.1,0c-1.6-0.5-3.2-1-4.9-1.3c-6.2-1.3-15.2-2-24-2.7c-10.4-0.8-20.1-1.8-24.5-3.3c-8.9-3-26.2-10.3-30.1-11.9
			c-0.1-0.3-0.2-0.6-0.3-0.9c0,0,0,0,0-0.1c0-1.1,0.1-2.2,0.1-3.3c1.8-2.8,2.9-4.8,5-7.4c5.6-7.1,5.4-15.6,6.4-23.9
			c0.2-1.5,1.3-2.8,2.1-4.2c0.1-0.2,0.1-0.4-0.1-0.5c-1.3-1.1-3.2-2.1-3.5-3.6c-0.3-1.2,1.4-2.8,2.4-4.4c0.1-0.2,0-0.4-0.1-0.5
			c-0.3-0.1-0.6-0.2-1-0.2c0,0-0.1,0-0.1,0c-0.5,0-1,0.1-1.5,0.1c-1.6,0-3.1-0.3-3.5-2c-0.3-1.3,0.9-3,1.7-4.8
			c0.1-0.2,0-0.3-0.2-0.4c-0.2,0-0.5,0-0.8,0c-0.3,0-0.6,0-0.8,0.1c-0.7,0.2-1.3,0.3-1.9,0.3c-2.9,0-4.5-2.1-4.6-6
			c0-0.1-0.1-0.2-0.2-0.2c0,0,0,0,0,0c-1.4,0.1-2.8,1.2-3.5,1.4c-1.6,0.5-2.1,1.2-3.2,1.2c-0.7,0-1.6-0.3-3-1
			c-0.6-0.3-1.6-0.8-2.5-0.8c-0.4,0-0.8,0.1-1,0.4c-1.1,1.1-1.4,1.9-1.5,3.2c0,0.3,0.2,0.6,0.5,0.6c0.1,0,0.2,0,0.3-0.1
			c0.3-0.4,1.5-1.2,1.9-1.2c1.6,0,4,1.4,5.2,2.5c8.4,8.1,13.5,17.2,13.5,29.2c0,2.9,0.4,8.4-1.6,12.1c-1.2,2.2-3.1,3.8-4.7,5.7
			c-0.1-0.6-0.3-1.3-0.4-1.9c-0.4-1.6-1-2.9-1.7-3c-4.8-0.9-6.9-6.6-10.5-9.7c-0.1-0.1-0.1-0.2,0-0.3c1.1-1.5,1.5-2.1,2.1-3.7
			c0.3-0.7,0.1-2.9-0.7-3.6c-0.3-0.3-1-0.7-1.5-0.7c-0.5,0-0.8,0.3-0.7,1.4c0.1,0.4,0.4,0.8,0.8,0.9l0.6,0.2c0.7,0.2,0.9,1,0.5,1.6
			l-2.3,2.8c0,0-0.1,0.1-0.2,0.1c0,0-0.1,0-0.1,0c-1.6-1.3-3.2-1.8-4.8-1.8c-1.3,0-2.5,0.3-3.7,0.7c-0.7,0.3-1.4,0.4-2.1,0.4
			c-2.1,0-3.8-1.2-3.7-3c0-0.8,2-0.4,1.9-2.7c0-0.4-0.7-0.6-1.3-0.6c-0.3,0-0.5,0-0.6,0.1c-0.7,0.7-1.4,1.8-1.6,2.8
			c-0.2,0.7,0.4,1.6,0.8,2.3c0.4,0.7,0.9,1.2,1.5,1.9c0.1,0.1,0.1,0.2,0,0.3c-6.9,4.8-6.9,9.7-11.4,9.7c-0.2,0-0.4,0-0.6,0
			c-0.1,0-0.2,0-0.3,0c-1.8,0-3.4,1.5-4,4.8c0,0.3-0.1,0.6-0.1,0.9c-1.6-1.8-3.5-3.3-4.6-5.4c-2-3.6-1.6-9.1-1.6-12.1
			c0-12,5.2-21.1,13.9-29.2c1.2-1.1,3.8-2.5,5.4-2.5c0.5,0,1.7,0.8,2,1.2c0.1,0.1,0.2,0.1,0.3,0.1c0.3,0,0.5-0.3,0.5-0.6
			c-0.1-1.3-0.4-2.1-1.6-3.2c-0.3-0.3-0.6-0.4-1-0.4c-0.9,0-2,0.5-2.6,0.8c-1.5,0.8-2.5,1-3.2,1c-1.1,0-1.7-0.7-3.3-1.2
			c-0.8-0.2-2.2-1.3-3.6-1.4c0,0,0,0,0,0c-0.1,0-0.2,0.1-0.2,0.2c-0.1,3.9-1.7,6-4.7,6c-0.6,0-1.3-0.1-2-0.3
			c-0.3-0.1-0.6-0.1-0.9-0.1c-0.3,0-0.6,0-0.8,0c-0.2,0-0.3,0.2-0.2,0.4c0.8,1.8,2.1,3.5,1.8,4.8c-0.4,1.7-2,2-3.6,2
			c-0.5,0-1,0-1.5-0.1c0,0-0.1,0-0.1,0c-0.4,0-0.7,0.1-1,0.2c-0.2,0.1-0.3,0.3-0.2,0.5c1.1,1.7,2.8,3.3,2.5,4.4
			c-0.3,1.4-2.3,2.4-3.6,3.6c-0.2,0.1-0.2,0.3-0.1,0.5c0.8,1.3,2,2.7,2.1,4.2c1,8.3,0.8,16.9,6.6,23.9c2.1,2.6,3.3,4.6,5.1,7.3
			c-0.1,0.6-0.2,1.2-0.4,1.9c-3.4,1.5-20.9,9-29.9,12c-4.3,1.5-13.9,2.5-24.2,3.3c-8.6,0.6-17.6,1.3-23.7,2.7
			c-1.7,0.4-3.3,0.8-4.9,1.3c0,0-0.1,0-0.1,0l0,0C30.4,82.4,21.7,89,16.1,94.3C8.2,101.7,3,109.2,1,113.5c-1.2,2.5-1.1,3.3-0.8,3.7
			c1,2,3.1,3.4,6.1,4.3c1.9,0.5,4,0.7,6.1,0.7c3.8,0,7.4-0.7,9-1.6c0.6,0.1,1.4,0.1,2.4,0.1c5.3,0,15.7-1.2,17.7-2.9
			c1.7-1,5.9-1.6,10-2.1c3.6-0.5,7-1,8.9-1.7c1.1,0.1,3.5,0.7,6.2,1.4c6.5,1.6,11.9,2.8,14.9,2.8c0.6,0,1.2-0.1,1.6-0.2
			c0.5,0.2,1.2,0.2,2.1,0.2c5.7,0,18.8-2.6,22.6-3.7c0.4,1.4,1,3.9,2,9.1c1.7,8.6,4.4,16.3,7.5,24.2c0.4,1.1,1.4,1.6,2.4,1.6
			c0.6,0,1.2-0.2,1.8-0.4c0.6-0.3,1.1-1.1,1.8-2.1c0.1-0.1,0-0.3-0.2-0.3c0,0,0,0,0,0l-2.8,0.1c0,0,0,0,0,0c-0.2,0-0.3-0.2-0.2-0.4
			l0.6-1.2c0.1-0.2,0-0.4-0.2-0.5c-1.2-0.5-2.6-0.7-2.9-1.4c-1.8-4.2-3.9-8.4-4.8-12.7c-1.4-7.3-2.2-12-2.3-15.6
			c0.6,0.1,1.2,0.1,1.9,0.1c1.1,0,2.4-0.1,3.7-0.5c1.5,4.6,3.3,9.2,5.3,13.7c0.7,1.6,2.1,2.9,3,4.4c2.7,4.6,5.1,9.4,7.9,13.9
			c1.2,1.9,2.9,3.6,4.5,5.2c0.3,0.3,0.9,0.4,1.5,0.4c0.3,0,0.6,0,0.8-0.1c0.5-0.1,1-0.6,1.4-1.1c0.1-0.1,0.1-0.3-0.1-0.4l-1.4-0.7
			c-0.2-0.1-0.3-0.4-0.2-0.6l1.1-1.6c0.1-0.2,0-0.5-0.2-0.5c-1.7-0.2-3.5,0-4.2-0.8c-6.2-7.7-11.2-15.9-11.6-26.1
			c-0.1-2.1-0.3-4.1-0.8-6.2c-0.2-1.1-0.6-2.1-0.9-3.2c0.1-0.1,0.3-0.3,0.4-0.4c2.7,8,8,12.2,18.5,15.3c2.2,0.7,4.5,1.1,7,1.1
			c3.2,0,6.4-0.7,9.4-2.5c6.2-3.7,10.4-6.8,12.6-12.6c0.3,0.4,0.6,0.7,0.9,1c-0.1,0.2-0.1,0.4-0.2,0.7c-0.4,2-0.7,4.1-0.7,6.2
			c-0.4,10.2-5.2,18.4-11.2,26.1c-0.6,0.8-2.4,0.6-4,0.8c-0.2,0-0.4,0.3-0.2,0.5l1.1,1.6c0.1,0.2,0.1,0.5-0.2,0.6l-1.4,0.7
			c-0.2,0.1-0.2,0.3-0.1,0.4c0.5,0.4,0.9,0.9,1.4,1.1c0.2,0.1,0.5,0.1,0.8,0.1c0.6,0,1.1-0.1,1.4-0.4c1.6-1.6,3.2-3.3,4.3-5.2
			c2.7-4.6,5.1-9.3,7.6-13.9c0.9-1.5,2.2-2.8,2.9-4.4c1.6-3.6,3-7.3,4.3-11c1.6,0.5,3.2,0.7,4.5,0.7c0.5,0,0.9,0,1.3-0.1
			c-0.4,2.9-1,6.5-1.8,11c-0.8,4.4-2.8,8.6-4.6,12.7c-0.3,0.7-1.7,1-2.8,1.4c-0.2,0.1-0.3,0.3-0.2,0.5l0.6,1.2
			c0.1,0.2,0,0.4-0.2,0.4c0,0,0,0,0,0l-2.7-0.1c0,0,0,0,0,0c-0.2,0-0.3,0.2-0.2,0.3c0.7,1,1.1,1.8,1.7,2.1c0.6,0.3,1.2,0.4,1.7,0.4
			c1,0,1.9-0.5,2.3-1.6c3-7.8,5.6-15.6,7.2-24.2c0.4-1.9,0.7-3.4,0.9-4.6c0.1,0,0.2,0,0.4-0.1c0.2,0,0.3-0.1,0.4-0.1
			c2.7,0.9,17.3,3.9,23.4,3.9c0.9,0,1.7-0.1,2.1-0.2c0.4,0.1,0.9,0.2,1.6,0.2c3,0,8.5-1.2,15.1-2.8c2.8-0.7,5.2-1.2,6.3-1.4
			c2,0.8,5.4,1.2,9,1.7c4.1,0.6,8.4,1.1,10.1,2.1c2,1.8,12.5,2.9,17.9,2.9c1,0,1.9,0,2.5-0.1c1.6,0.9,5.2,1.6,9.1,1.6
			c2.1,0,4.2-0.2,6.2-0.7C291.8,123,293.9,121.5,294.9,119.5z M172.2,17.1c-2.2-4.5-5.7-8.3-8.8-12.6c-0.1-0.1,0-0.3,0.1-0.3
			l3.9-1.7c0,0,0.1,0,0.1,0c0.1,0,0.2,0.1,0.2,0.2c0.6,4,2,4.6,6.3,5.4c0.1,0,0.2,0.1,0.2,0.2c0,1.6-0.1,3.3,0.6,4.4
			c0.8,1.1,2.2,1.7,3.4,2.6c0.1,0.1,0.1,0.2,0.1,0.3c-1.2,3-0.3,4.7,2.3,6.6c0.1,0.1,0.1,0.2,0.1,0.3c-0.7,1.7-1.1,4.7-1.5,6.9
			c-0.9,5-2.2,12.7-3.1,14.6c0,0,0,0.1-0.1,0.1c0-0.1,0-0.2,0.1-0.3c0-0.3,0.1-0.6,0.1-0.8C178.2,33.8,176.1,25.1,172.2,17.1z
			 M117.6,43.8c-0.9-1.9-2.3-9.7-3.2-14.6c-0.4-2.2-0.8-5.3-1.5-6.9c0-0.1,0-0.2,0.1-0.3c2.7-1.9,3.6-3.6,2.4-6.6
			c0-0.1,0-0.2,0.1-0.3c1.3-0.8,2.8-1.4,3.6-2.6c0.8-1.1,0.6-2.8,0.6-4.4c0-0.1,0.1-0.2,0.2-0.2c4.4-0.8,5.8-1.5,6.5-5.4
			c0-0.1,0.1-0.2,0.2-0.2c0,0,0.1,0,0.1,0l4,1.7c0.1,0.1,0.2,0.2,0.1,0.3c-3.2,4.3-6.8,8.1-9.1,12.6c-4,8-6.2,16.7-4.1,25.7
			c0,0.2,0.1,0.5,0.1,0.8c0,0.1,0,0.2,0.1,0.3C117.6,43.9,117.6,43.9,117.6,43.8z M199.3,75.2c7.4,2.2,14.4,2.6,24.9,3.3
			c2.5,0.2,5,0.4,7.4,0.6c-2.3,0-4.6-0.1-6.9-0.1c-3.3,0-6.4,0-9.4,0.1c-2.9,0-5.5,0.3-8.2,0.3c-1.9,0-3.8-0.1-6.1-0.5
			c-9.1-1.6-22.9-6.3-29.2-9.3c-0.4-1.8-0.9-3.6-1.4-5.4C176.9,67.4,192.8,73.3,199.3,75.2z M70,76.2c10.4-0.8,17.3-1.2,24.6-3.3
			c6.5-1.9,22.5-7.9,28.7-11.1c-0.3,1-0.7,2.1-1.2,3.4c-0.2,0.7-0.5,1.4-0.7,2.2c-6.3,3-19.7,7.6-28.6,9.2c-2.2,0.4-4.1,0.5-6,0.5
			c-2.7,0-5.2-0.3-8.1-0.3c-2.9,0-6-0.1-9.3-0.1c-2.3,0-4.5,0-6.8,0.1C65.1,76.6,67.6,76.4,70,76.2z M20.7,119.3
			c0,0.1-0.1,0.2-0.1,0.3c-0.9,1-3.6,1.5-6.6,1.5c-2.4,0-5-0.3-7.3-0.9c-2.7-0.7-4.5-1.9-5.3-3.5c-0.1-0.3,0.2-1.9,2.5-5.6
			c5.5-9,19.3-24.9,37.9-30.9c0.2-0.1,0.5-0.1,0.7-0.2c-3.6,2.4-7.1,6.2-10.4,11C26.9,98.6,21.5,116.5,20.7,119.3z M40.1,116.9
			c-2.1,2.1-8.3,2.6-13.1,2.6c-2.1,0-3.9-0.1-5-0.2c4.5-19.3,13.1-35.5,24.8-40.2c3.2-1.2,9-0.8,14.2-1c-5.3,2.5-10.1,8.9-14.3,19.1
			C43.2,105.8,41.6,115.3,40.1,116.9z M59.9,110.6c-0.3,1.6-1.3,2.5-2.9,2.8c-1.7,0.3-3.8,0.6-5.8,0.9c-3.4,0.5-6.7,0.9-8.9,1.6
			c1.5-6.9,7.7-37.1,23.9-37.8c0,0,6.8-0.1,11-0.1c0.6,0,1.1,0,1.5,0c2.4,0,4.3,0.1,6.3,0.1C71.8,81.5,63.3,94.5,59.9,110.6z
			 M82.7,115.6c-0.2,0.9-0.9,1.2-1.8,1.2c-0.1,0-0.2,0-0.4,0c-3.4-0.3-9.6-1.8-13.7-2.7c-2.5-0.6-4.5-1.1-5.8-1.3
			c3.2-18.9,11.6-32.4,29.8-34.6c6.8-0.9,14.8-3.3,29.3-9.1c-0.6,0.4-0.9,0.6-1.5,1C107.2,77.6,88.4,90.7,82.7,115.6z M107.6,110.3
			c-0.3,2-0.3,2.6-3,3.6c-4.8,1.4-15.3,3-19.5,3c-0.5,0-0.9,0-1.2-0.1c5.1-25.3,20.1-34,35.5-45.8c0.5-0.4,1.1-0.8,1.6-1.2
			c-0.1,0.6-0.2,1.2-0.3,1.8c-0.1,0.8-0.3,1.6-0.4,2.5c-2.1,3.2-4.4,7.7-6.5,13.2C110.4,96.1,108.1,103.3,107.6,110.3z M112.4,113.4
			c-1.4,0-2.6-0.2-3.5-0.4c0,0,0,0,0,0c0.7-12.4,4.7-26.2,11-36c-0.1,0.7-0.1,1.4-0.2,2.1c-0.1,1.5-0.2,3-0.3,4.4
			c0,1-0.1,1.8-0.1,2.6c-0.1,4.9,1.1,13,1.7,17.3c0.3,2,0.6,3.8,1.1,5.5C118.8,112.6,115.2,113.4,112.4,113.4z M122.7,125.6
			c0,0.1-0.1,0.2-0.2,0.2c-0.1,0-0.2,0-0.2-0.1c-1.8-3.9-3.1-8-4.2-12.2c0.9-0.4,1.8-0.9,2.8-1.6C122.2,116.2,123,120.8,122.7,125.6
			z M144.5,124.2c0,0.1,0,0.1-0.1,0.2c-0.1,0.1-0.2,0.3-0.3,0.3c-0.2,0-0.5,0-0.7,0c-2.1,0-3.9-0.5-5.7-1.3l-0.1,0c0,0,0,0,0,0
			c-1.7-0.8-3.4-1.8-5.1-3c-0.3-0.2-0.7-0.5-1-0.7l-0.6-0.4c0,0,0,0,0-0.1c-1.7-1.3-2.9-2.5-3.7-4.2c-0.2-0.4-0.4-0.9-0.6-1.4
			c0,0.1,0,0.2,0,0.2l-1.5-3.7c0,0,0-0.1,0-0.3c-5.1-14.4-4.5-33.5,0.6-46.5c0,0,0,0,0-0.1c0.1-0.3,0.2-0.6,0.4-0.9
			c0.2-0.4,0.3-0.8,0.5-1.2c0-0.1,0.1-0.1,0.2-0.1c0,0,0.1,0,0.1,0c4.6,1.7,9.2,3.4,13.7,5.2c4.6,1.8,6.3,4.3,6.1,9.3
			c-0.6,14.1-1.4,28.1-2.1,42.2C144.5,120,144.5,122,144.5,124.2z M168.7,110.3l-0.6,1.2c-2.2,6.2-8.9,11-13.9,12.6
			c0,0.1,0,0.1,0,0.1l-2,0.6c0,0,0-0.1,0-0.2c0,0,0,0,0,0c-0.1,0-0.3,0.1-0.4,0.1c-1,0.3-2.2,0.6-4,0.6c-0.6,0-1.2,0-1.9-0.1
			c0,0,0,0,0,0c-0.1,0-0.2-0.1-0.2-0.2c0.2-2.2,0.3-3.7,0.3-5.6c-0.2-13.9,0.4-27.8,2.1-41.6c0.8-6.6-1.2-10.6-7.5-13.2
			c-3.5-1.5-7-2.8-10.3-4.6c-3.3-1.8-4.1-7.3-1.3-9.7c0.4-0.4,1.1-0.5,1.8-0.5c1.1,0,2.3,0.3,3.3,0.5c3.9,1.1,7.6,2.6,11.4,3.9
			c0,0,0.1,0,0.1,0c0.2,0,0.4-0.1,0.4-0.3l0-0.1c0.1-0.3-0.1-0.7-0.4-0.8c-1.6-0.5-3.2-0.9-4.6-1.7c-4.9-2.7-6.2-6.3-1.5-9.7
			c0.8-0.6,1.6-1.3,2.5-1.9c3-1.9,5.4-3,7.7-3c2.5,0,4.7,1.3,7.1,4.3c0.1,0.1,0.1,0.1,0.2,0.2c4.5,5,4.5,5-0.5,9.3
			c-0.4,0.3-0.8,0.6-1.3,0.8c-0.3,0.2-0.4,0.6-0.2,0.9c0.1,0.2,0.3,0.2,0.5,0.2c0.1,0,0.2,0,0.3-0.1c1.3-0.8,2.6-1.5,3.8-2.5
			c1.2-1,2.4-1.5,3.4-1.5c1.5,0,2.7,1.1,3.6,3.4c0,0.1,0.1,0.2,0.1,0.3c0.6,1.8,1.1,3.1,1.3,4.1c0,0.2,0,0.4,0,0.7c0,0.4,0,0.7,0,1
			c-0.4,1.4-2,2-5.7,3.3c-6.3,2.4-11.1,6.2-12.4,13.1c0,0.2,0.1,0.2,0.2,0.2c0.1,0,0.2,0,0.2-0.1c3.3-7.7,9.4-11.7,17.6-13.2
			c0,0,0,0,0,0c0.1,0,0.2,0.1,0.2,0.1c0.5,1.3,0.9,2.7,1.2,4.1c0.2,1,0.5,1.9,0.7,2.9c0.1,0.4,0.1,0.7,0.2,1.1
			c0.7,3.6,1.1,7.4,1.2,10.7c0.2,6.6,0.2,8.1,0,13.7c-0.2,4.2-1.6,11.1-2.7,15.3C168.7,110,168.7,110.3,168.7,110.3z M171.6,125.1
			c0,0.1-0.1,0.1-0.2,0.1c-0.1,0-0.2-0.1-0.2-0.2c-0.3-3.9,0.2-7.6,1.1-11.2c0.9,0.7,1.8,1.3,2.7,1.7
			C174.1,118.8,173,122,171.6,125.1z M184.8,115.4c-0.9,0.1-2.1,0.4-3.5,0.4c-3.1,0-7.1-1-10.8-5.6c0.3-0.9,0.5-1.8,0.7-2.9
			c0.9-4.4,2.2-13.9,2.1-21.5c0-1.2,0-2.3-0.1-3.4c0-1-0.1-1.9-0.1-2.9c0-0.3,0-0.6-0.1-0.9C179.8,88.3,184.1,102.6,184.8,115.4
			C184.8,115.4,184.8,115.4,184.8,115.4z M209,119.2c-4.2,0-14.9-1.6-19.8-3c-2.7-1-2.7-1.7-3-3.6c-0.5-7-2.9-14.2-6.3-22.9
			c-2.3-5.9-4.8-10.7-7.1-13.9c-0.1-0.8-0.2-1.7-0.3-2.6c-0.1-0.4-0.1-0.8-0.2-1.2c0.6,0.4,1.3,0.9,2,1.4
			c15.6,11.8,30.8,20.4,35.9,45.8C209.9,119.2,209.5,119.2,209,119.2z M227.4,116.3c-4.1,1-10.4,2.5-13.9,2.7c-0.1,0-0.3,0-0.4,0
			c-0.9,0-1.6-0.3-1.8-1.2c-5.7-24.9-24.8-38-36.3-45.6c-0.6-0.4-1-0.6-1.6-1c14.7,5.9,22.8,8.3,29.6,9.1
			c18.4,2.3,26.9,15.8,30.2,34.6C231.9,115.3,229.9,115.7,227.4,116.3z M243.2,116.7c-2-0.3-4.1-0.6-5.9-0.9
			c-1.6-0.3-2.6-1.3-2.9-2.8c-3.4-16.1-12.1-29.1-25.5-32.4c2,0,4-0.1,6.4-0.1c0.5,0,1,0,1.5,0c4.3,0,11.2,0.1,11.2,0.1
			c16.4,0.7,22.6,30.8,24.2,37.8C250,117.6,246.6,117.1,243.2,116.7z M267.7,121.9c-4.9,0-11.1-0.5-13.2-2.6
			c-1.6-1.6-3.2-11.1-6.7-19.6c-4.2-10.2-9.1-16.6-14.5-19.1c5.3,0.1,11.2-0.3,14.4,1c11.8,4.7,20.5,20.9,25.1,40.2
			C271.6,121.8,269.8,121.9,267.7,121.9z M281,123.4c-3.1,0-5.8-0.5-6.7-1.5c-0.1-0.1-0.1-0.2-0.1-0.3c-0.8-2.8-6.3-20.7-11.5-28.4
			c-3.3-4.8-6.9-8.6-10.5-11c0.3,0.1,0.5,0.1,0.8,0.2c18.9,6,32.8,21.9,38.4,30.9c2.3,3.7,2.6,5.3,2.5,5.6c-0.8,1.6-2.6,2.8-5.4,3.5
			C286.1,123.1,283.4,123.4,281,123.4z"/>
		<circle class="st5" cx="147.8" cy="17.3" r="10.7"/>
	</g>
	<circle class="st0" cx="147.9" cy="16.9" r="9.4"/>
	<ellipse class="st4" cx="147.7" cy="16.5" rx="8.3" ry="8.5"/>
</g>
</svg>