<!-- Generator: Adobe Illustrator 22.1.0, SVG Export Plug-In  -->
<svg version="1.1"
	 xmlns="http://www.w3.org/2000/svg" xmlns:xlink="http://www.w3.org/1999/xlink" xmlns:a="http://ns.adobe.com/AdobeSVGViewerExtensions/3.0/"
	 x="0px" y="0px" width="42px" height="19.9px" viewBox="0 0 42 19.9" style="enable-background:new 0 0 42 19.9;"
	 xml:space="preserve">
<style type="text/css">
	.st0{fill:#F8C230;}
</style>
<defs>
</defs>
<g>
	<path class="st0" d="M0.8,15c0.7,0,1.3,0,1.7,0c0.5,0,0.8,0.1,1.2,0.2c0.7,0.3,1.5,0.5,2.3,0.7C6.8,16,7.7,16.1,8.5,16
		c0.8-0.1,1.7-0.2,2.6-0.4c1.8-0.4,3.6-1,5.4-1.7c1.8-0.7,3.5-1.5,5.2-2.4c0.4-0.2,0.8-0.4,1.3-0.7c0.4-0.3,0.9-0.5,1.3-0.7
		c0.9-0.5,1.8-0.9,2.8-1.3c1.9-0.7,4-1.3,6.1-1c1,0.2,2,0.4,3,0.8c0.5,0.2,1,0.5,1.4,0.8c0.4,0.4,0.7,0.8,1,1.3
		c0.2,0.5,0.3,1,0.4,1.5c0.1,0.5,0,1.1-0.2,1.6c-0.4,1-1.1,1.7-2,2.3L36.6,16c0.8-0.6,1.4-1.3,1.7-2.2c0.1-0.4,0.1-0.9,0-1.3
		c-0.1-0.5-0.3-0.9-0.5-1.3c-0.4-0.8-1.2-1.3-2.1-1.6C34.9,9.2,33.9,9.1,33,9c-1.8-0.1-3.6,0.5-5.3,1.3c-0.8,0.4-1.7,0.9-2.5,1.4
		c-0.4,0.3-0.8,0.5-1.2,0.8c-0.4,0.3-0.8,0.6-1.2,0.9c-1.7,1.1-3.4,2.2-5.1,3.2c-1.8,1-3.6,1.9-5.7,2.5c-1,0.3-2.1,0.6-3.2,0.7
		c-1.2,0.1-2.3,0.1-3.4-0.1c-1.1-0.2-2.3-0.5-3.3-1.1c-0.5-0.3-1-0.7-1.3-1.3c-0.3-0.6-0.5-1.2-0.4-2L0.8,15z"/>
	<path class="st0" d="M9.3,9.2L9,9.1L8.7,9.1L8.5,9L8.4,9L8.3,9C8,8.9,7.9,8.9,7.7,8.8C7.6,8.7,7.5,8.7,7.4,8.6c0-0.1,0-0.1-0.1-0.2
		L7.2,7.5L7,5.9c-0.1-0.5-0.2-1-0.6-1.4C6.1,4.1,5.5,3.8,4.9,3.8C3.7,3.9,2.5,4.5,1.7,5.6c-0.8,1-1.1,2.4-0.9,3.7
		C1,10,1.3,10.6,1.7,11c0.4,0.5,1.1,0.8,1.7,1.1c1.2,0.6,2.6,1,3.9,1.2c2.7,0.4,5.6-0.1,8.1-1.1c1.3-0.5,2.5-1.2,3.7-2
		c1.2-0.8,2.4-1.6,3.7-2.2c1.3-0.7,2.6-1.2,4-1.7c1.4-0.5,2.8-0.8,4.3-0.9c1.5-0.1,3-0.1,4.4,0.3C37,6.1,38.3,7,39.2,8.3
		c0.4,0.6,0.8,1.3,1,2c0.2,0.7,0.4,1.5,0.3,2.2c-0.1,0.8-0.4,1.5-0.8,2.1c-0.4,0.6-0.9,1.1-1.6,1.5L38,16c1.1-0.9,1.8-2.2,1.8-3.5
		c0-0.7-0.1-1.3-0.4-1.9c-0.2-0.6-0.6-1.2-1-1.7c-0.8-1-2-1.7-3.3-2.1c-1.3-0.3-2.7-0.4-4-0.2c-2.7,0.3-5.4,1.1-8,2.3
		c-1.3,0.6-2.5,1.3-3.7,2.1c-1.2,0.8-2.5,1.5-3.8,2c-2.7,1.1-5.6,1.7-8.5,1.3c-1.4-0.2-2.9-0.7-4.2-1.3c-0.3-0.2-0.6-0.4-1-0.5
		c-0.3-0.2-0.6-0.4-0.9-0.7c-0.5-0.6-0.9-1.3-1-2.1c-0.3-1.5,0-3.1,0.8-4.4c0.4-0.7,1-1.2,1.6-1.7C3.2,3,4,2.7,4.8,2.5
		c0.8-0.2,1.7-0.2,2.7,0.1c0.9,0.3,1.7,1,2.3,1.7c0.6,0.7,1,1.5,1.2,2.3c0.1,0.4,0.2,0.8,0.2,1.2c0,0.1,0,0.2,0,0.3
		c0,0.1-0.1,0.2-0.2,0.3c-0.1,0.1-0.3,0.2-0.5,0.3l-0.1,0l-0.1,0L10,9L9.8,9.1c-0.1,0-0.2,0-0.3,0.1H9.3z"/>
	<path class="st0" d="M19.5,4.2l-0.3,0l-0.3,0l-0.4,0l-0.5,0c-0.3,0-0.2-0.1-0.3-0.1c-0.1-0.1-0.1-0.3-0.2-0.4
		c-0.1-0.3-0.2-0.5-0.3-0.8c-0.1-0.2-0.3-0.5-0.6-0.6c-0.3-0.1-0.8,0-1.2,0.2c-0.8,0.5-1.6,1.1-2,2C13,5.2,13.1,6.3,13.7,7
		c0.6,0.8,1.6,1.2,2.5,1.2c1,0,1.9-0.5,2.8-1.1c0.9-0.6,1.8-1.2,2.7-1.8c0.9-0.6,1.9-1.1,2.9-1.5c2-0.8,4.3-1.2,6.4-1.1
		c2.2,0,4.5,0.5,6.4,1.7c1,0.6,1.9,1.3,2.6,2.1c0.7,0.9,1.3,1.9,1.6,3c0.3,1.1,0.3,2.3,0,3.4c-0.3,1.1-0.9,2-1.7,2.8l-0.1-0.1
		c0.6-0.8,1.1-1.8,1.3-2.8c0.1-0.5,0.1-1,0.1-1.5c0-0.5-0.2-1-0.3-1.5c-0.7-1.9-2.2-3.4-4-4.4c-1.8-1-3.8-1.5-5.9-1.6
		c-2.1-0.1-4.2,0.1-6.2,0.8c-1,0.4-1.9,0.8-2.8,1.4c-0.9,0.5-1.8,1.2-2.7,1.8C19,7.9,18.5,8.2,18,8.4c-0.5,0.2-1.1,0.4-1.7,0.4
		c-1.2,0.1-2.4-0.4-3.1-1.3c-0.4-0.5-0.7-1-0.8-1.6c-0.1-0.6-0.1-1.2,0.1-1.8C12.7,3.5,13,3,13.4,2.5c0.4-0.5,0.8-0.9,1.3-1.2
		c0.5-0.4,1-0.8,1.7-1c0.7-0.3,1.7-0.3,2.5,0c0.8,0.3,1.5,0.9,1.9,1.5c0.2,0.3,0.4,0.7,0.5,1.1c0,0.1,0.1,0.2,0.1,0.3
		c0,0.1,0,0.2-0.1,0.4c0,0-0.1,0.1-0.1,0.1l-0.1,0.1l-0.1,0.1c-0.1,0-0.1,0.1-0.2,0.1c-0.1,0-0.1,0.1-0.2,0.1l-0.2,0.1l-0.2,0.1
		C19.9,4.2,19.7,4.2,19.5,4.2L19.5,4.2z"/>
</g>
</svg>
