<!-- Generator: Adobe Illustrator 22.1.0, SVG Export Plug-In  -->
<svg version="1.1"
	 xmlns="http://www.w3.org/2000/svg" xmlns:xlink="http://www.w3.org/1999/xlink" xmlns:a="http://ns.adobe.com/AdobeSVGViewerExtensions/3.0/"
	 x="0px" y="0px" width="56px" height="16.4px" viewBox="0 0 56 16.4" style="enable-background:new 0 0 56 16.4;"
	 xml:space="preserve">
<style type="text/css">
	.st0{fill:#F9C232;}
</style>
<defs>
</defs>
<path class="st0" d="M55.5,13.1c-0.4-0.5-0.8-0.9-1.3-1.4c-0.9-0.9-1.8-1.7-2.8-2.5c-1-0.8-2.1-1.4-3.2-2c0,0-0.1,0-0.2-0.1
	c0,0,0-0.1,0-0.1c-0.1-1.6-0.6-3.2-1.7-4.4c-1-1.3-2.5-2.2-4.1-2.5c-1.6-0.4-3.3-0.1-4.7,0.4c-1.5,0.5-2.8,1.3-4.1,2.1
	c-1.3,0.8-2.4,1.8-3.5,2.8c-1.1,1-2.2,1.9-3.4,2.8c-1.2,0.8-2.5,1.6-3.8,2.1c-0.4,0.2-0.8,0.3-1.1,0.5c0.6-0.3,1.2-0.6,1.8-1
	c1-0.7,1.8-1.5,2.6-2.4c0.8-0.9,1.4-1.9,1.8-3.1c0.1-0.3,0.2-0.6,0.2-0.9C28,3.2,28.1,2.9,28,2.6c0-0.6-0.2-1.2-0.7-1.8l-0.3,0
	c-0.5,0.5-0.7,1-0.9,1.5C26,2.5,26,2.8,25.9,3c-0.1,0.2-0.2,0.5-0.2,0.7c-0.4,0.9-0.7,1.8-1.2,2.6c-0.5,0.8-1.2,1.6-2,2.2
	c-0.8,0.6-1.7,1.1-2.6,1.5c-0.7,0.3-1.4,0.6-2.2,0.8c0.3-0.1,0.5-0.2,0.8-0.4c1-0.5,2-1.2,2.8-2c0.8-0.8,1.5-1.8,2-2.9
	c0.2-0.5,0.4-1.1,0.5-1.7c0.1-0.6,0.1-1.2-0.4-1.8h-0.2c-0.5,0.5-0.7,0.9-0.9,1.4c-0.1,0.5-0.3,0.9-0.5,1.4
	c-0.4,0.9-0.9,1.8-1.6,2.5c-0.6,0.8-1.5,1.4-2.3,1.9c-0.9,0.5-1.9,0.9-2.9,1.2c-0.4,0.1-0.7,0.2-1.1,0.3c0.7-0.3,1.3-0.7,2-1
	c0.8-0.5,1.6-1.1,2.3-1.8c0.7-0.7,1.3-1.5,1.7-2.4c0.2-0.5,0.4-0.9,0.5-1.4c0.1-0.5,0-1-0.4-1.6h-0.2c-0.5,0.4-0.7,0.7-0.9,1.1
	c-0.1,0.4-0.3,0.8-0.5,1.1C17.9,5.6,17.5,6.3,17,7c-1,1.3-2.5,2.4-4.1,3c-1.6,0.6-3.4,0.8-5.2,0.7c-1.8-0.1-3.6-0.4-5.3-0.9l0,0
	L0,9.1l2.2,1.3c0,0,0,0,0,0l0,0c0.6,0.4,1.2,0.7,1.9,0.9c0.5,0.2,1,0.4,1.5,0.5c1.2,0.4,2.3,0.7,3.5,0.8c2.4,0.4,4.8,0.4,7.3,0.3
	c2.4-0.2,4.8-0.6,7.2-1.2c2.4-0.6,4.6-1.4,6.9-2.1c0.9-0.3,1.8-0.6,2.7-0.8c0,0,0,0.1-0.1,0.1c-0.3,0.7-0.4,1.5-0.3,2.3
	c0.1,0.8,0.4,1.5,0.8,2.2c0.4,0.6,1,1.2,1.6,1.7c1.3,0.9,2.9,1.3,4.4,1.3c1.6,0,3.1-0.5,4.4-1.3c1.3-0.8,2.5-2,3.1-3.5
	c0.3-0.6,0.5-1.1,0.6-1.7c0.7,0.4,1.4,0.9,2.1,1.4c0.9,0.7,1.8,1.4,2.6,2.3c0.4,0.4,0.8,0.8,1.2,1.2c0.4,0.4,1,0.7,1.9,0.7l0.4-0.3
	C56.1,14.3,55.9,13.7,55.5,13.1z M30,8.4c-1.8,0.7-3.7,1.4-5.5,2c2.3-1,4.4-2.3,6.4-3.8C32,5.7,33.2,4.8,34.3,4
	c1.2-0.8,2.4-1.5,3.7-2c1.3-0.5,2.7-0.7,3.9-0.5c1.3,0.3,2.5,1,3.4,2c0.7,0.9,1.2,2,1.4,3.1c-0.7-0.3-1.5-0.5-2.2-0.7
	c-1.3-0.3-2.6-0.4-3.9-0.3c-1.3,0.1-2.5,0.3-3.7,0.5c-0.6,0.1-1.2,0.3-1.8,0.5c0.8-0.8,1.7-1.6,2.6-2.2l0,0
	c-1.1,0.7-2.2,1.4-3.1,2.4C33,7.2,31.5,7.8,30,8.4z M46.1,11.2c-1,2.6-3.8,4.2-6.5,4.4c-1.4,0.1-2.8-0.2-4-1
	c-0.6-0.4-1.1-0.9-1.5-1.4c-0.4-0.6-0.7-1.2-0.8-1.9c-0.1-0.8,0-1.7,0.4-2.5C34.8,8.5,36,8.2,37.3,8c1.1-0.2,2.3-0.3,3.4-0.2
	c1.1,0,2.2,0.2,3.2,0.5c0.9,0.3,1.9,0.7,2.7,1.1C46.6,10,46.4,10.6,46.1,11.2z"/>
</svg>