<?xml version="1.0" encoding="utf-8"?>
<!-- Generator: Adobe Illustrator 22.1.0, SVG Export Plug-In . SVG Version: 6.00 Build 0)  -->
<svg version="1.1" id="Layer_1" xmlns="http://www.w3.org/2000/svg" xmlns:xlink="http://www.w3.org/1999/xlink" x="0px" y="0px"
	 viewBox="0 0 40 40" style="enable-background:new 0 0 40 40;" xml:space="preserve">
<style type="text/css">
	.st0{fill:#71A1D6;}
</style>
<path class="st0" d="M34.4,11.6H5.6c-0.7,0-1.2-0.5-1.2-1.2V8.6c0-0.7,0.5-1.2,1.2-1.2h28.9c0.7,0,1.2,0.5,1.2,1.2v1.8
	C35.6,11,35.1,11.6,34.4,11.6z"/>
<path class="st0" d="M34.4,22.1H5.6c-0.7,0-1.2-0.5-1.2-1.2v-1.8c0-0.7,0.5-1.2,1.2-1.2h28.9c0.7,0,1.2,0.5,1.2,1.2v1.8
	C35.6,21.6,35.1,22.1,34.4,22.1z"/>
<path class="st0" d="M34.4,32.6H5.6c-0.7,0-1.2-0.5-1.2-1.2v-1.8c0-0.7,0.5-1.2,1.2-1.2h28.9c0.7,0,1.2,0.5,1.2,1.2v1.8
	C35.6,32.1,35.1,32.6,34.4,32.6z"/>
</svg>
